<svg width="64" height="64" viewBox="0 0 64 64" fill="none" xmlns="http://www.w3.org/2000/svg">
<mask id="path-1-inside-1_1666_1423" fill="white">
<path d="M0 0H64V64H0V0Z"/>
</mask>
<path d="M0 0H64V64H0V0Z" fill="#FFF9F6"/>
<path d="M0 0V1.5H64V0V-1.5H0V0ZM64 64V62.5H0V64V65.5H64V64Z" fill="#FF7700" mask="url(#path-1-inside-1_1666_1423)"/>
<g clip-path="url(#clip0_1666_1423)">
<mask id="path-3-outside-2_1666_1423" maskUnits="userSpaceOnUse" x="7.02441" y="11.0801" width="50" height="42" fill="black">
<rect fill="white" x="7.02441" y="11.0801" width="50" height="42"/>
<path d="M19.122 48.3505C18.3608 46.8552 17.8136 46.2611 16.1386 45.849C15.3297 45.65 14.7445 45.3953 14.2787 44.9612C13.8157 44.5296 13.4917 43.9393 13.2049 43.0691C12.7952 41.8261 12.1206 41.7376 10.9384 41.5297C10.4553 41.4447 9.97109 41.2458 9.52875 40.9543C9.37559 40.8534 9.22729 40.7413 9.08564 40.6189C8.8414 40.4079 8.86831 40.3356 8.86831 40.6782C8.86831 41.0199 8.83706 41.0177 9.06617 41.2607C9.6142 41.8422 10.2895 42.1457 11.0722 42.2794C12.5761 42.5364 12.8719 43.3786 13.1928 44.2922C13.4966 45.1574 13.8283 46.1018 15.733 46.4494C17.5474 46.7805 18.1727 47.1722 18.8521 48.9223C19.1953 49.8064 19.9219 50.4209 20.5643 50.793C21.0677 51.0846 21.6459 51.2234 22.2624 51.2414C22.4817 51.2478 22.5247 51.2063 22.5244 50.9716C22.5243 50.8508 22.5241 50.7421 22.5237 50.6297C22.5224 50.2713 22.5798 50.3466 22.2431 50.3337C20.9071 50.2823 19.7341 49.5529 19.122 48.3505L19.122 48.3505ZM52.776 18.5721C52.9254 18.4648 52.9171 18.2437 52.7599 18.1477C52.671 18.0944 52.5601 18.0985 52.4756 18.1584L50.804 19.3483C50.6547 19.4556 50.663 19.6767 50.8202 19.7727C50.9091 19.826 51.0199 19.8219 51.1045 19.762L52.776 18.5721ZM33.0587 33.6257C32.9055 33.5165 32.8707 33.305 32.981 33.1532C33.0913 33.0015 33.3049 32.9671 33.4582 33.0763L40.3897 38.0235C40.6459 38.2064 40.5991 38.2185 40.5991 37.9027V37.6281C40.5991 37.3353 40.5302 37.321 40.3239 37.174L31.5471 30.917C31.3939 30.8078 31.3591 30.5963 31.4694 30.4446C31.5797 30.2929 31.7933 30.2584 31.9465 30.3676L40.7777 36.6633L40.7784 36.6625C40.8286 36.6981 40.8741 36.7328 40.9151 36.7674L55.1414 26.6696L55.1417 26.67C55.2115 26.6188 55.2558 26.5718 55.2779 26.529C55.2909 26.5039 55.2948 26.4789 55.2909 26.4547C55.2851 26.4174 55.2627 26.3734 55.2265 26.3247C55.126 26.1892 54.9443 26.0554 54.7115 25.9376C54.4216 25.7911 54.0514 25.6806 53.6409 25.5581C52.4237 25.1949 50.8767 24.7333 49.3951 22.8179C49.0406 22.3597 48.6805 22.0168 48.3066 21.7537L47.3435 22.4393C47.2589 22.4992 47.1481 22.5032 47.0592 22.45C46.902 22.354 46.8937 22.1328 47.043 22.0255L47.832 21.4639C47.0618 21.0597 46.2241 20.9133 45.2551 20.744L45.2385 20.7411C44.5195 20.6155 43.9233 20.4509 43.4112 20.1565C42.8853 19.8541 42.4629 19.425 42.1111 18.7784C42.0855 18.7314 42.0522 18.6692 42.0188 18.6069C41.7197 18.0481 41.4208 17.4897 40.7172 17.2381L32.5588 23.0491C32.4056 23.1583 32.1919 23.1238 32.0816 22.9721C31.9713 22.8204 32.0061 22.6089 32.1594 22.4996L40.4468 16.5968C40.5292 16.5334 40.6397 16.508 40.7481 16.5376C41.8467 16.8376 42.2355 17.564 42.6247 18.2911C42.6516 18.3415 42.6787 18.3921 42.7142 18.4573C43.0014 18.985 43.3389 19.331 43.7543 19.5699C44.1836 19.8167 44.7103 19.9594 45.3564 20.0723L45.3731 20.0752C46.5369 20.2785 47.5271 20.4516 48.4511 21.0232L48.7146 20.8356C48.7991 20.7757 48.91 20.7717 48.9988 20.8249C49.1561 20.9209 49.1644 21.1421 49.015 21.2494L48.8957 21.3343C49.2488 21.612 49.5946 21.9609 49.9393 22.4065C51.2852 24.1465 52.7131 24.5726 53.8365 24.9078C54.2737 25.0383 54.668 25.1559 55.0224 25.3351C55.3489 25.5002 55.6149 25.7032 55.7787 25.9239C55.8778 26.0574 55.9427 26.2007 55.9665 26.3511C55.9749 26.4043 55.978 26.4575 55.9756 26.5105L55.9681 28.258C55.9677 28.3592 55.9225 28.4498 55.8512 28.5115C55.8441 28.5188 55.8357 28.5258 55.826 28.5327L41.1419 38.9477C40.966 39.1395 40.744 39.1106 40.3564 38.8356V38.8343L33.0587 33.6257L33.0587 33.6257ZM19.809 15.0819L18.9537 12.8242L18.9529 12.8245C18.8625 12.6043 18.9205 12.3996 19.0488 12.2587C19.101 12.2013 19.1651 12.1557 19.2356 12.125C19.3063 12.0941 19.3852 12.0781 19.4668 12.0803C19.6572 12.0853 19.8478 12.183 19.9585 12.414L19.9706 12.4445L20.7858 14.6788C20.8312 14.6915 20.8754 14.7077 20.918 14.7275C21.1166 14.8194 21.2796 14.9861 21.36 15.2057L25.6731 27.0172C25.7535 27.2368 25.7362 27.4681 25.6434 27.6645C25.5505 27.8611 25.3822 28.0225 25.1604 28.1021C24.9387 28.1817 24.7051 28.1646 24.5067 28.0727C24.3081 27.9807 24.1451 27.814 24.0647 27.5945L19.7516 15.7829C19.6712 15.5634 19.6884 15.3321 19.7813 15.1356C19.7899 15.1174 19.7992 15.0995 19.809 15.0819ZM25.8626 22.9186C25.8481 23.0582 25.7221 23.1598 25.5811 23.1455C25.4401 23.1313 25.3375 23.0065 25.3519 22.8669L25.7668 18.8844C25.7812 18.7447 25.9072 18.6431 26.0483 18.6574C26.1893 18.6717 26.2919 18.7965 26.2774 18.9361L25.8626 22.9186ZM24.503 35.9688C24.4886 36.1084 24.3626 36.21 24.2216 36.1957C24.0805 36.1814 23.9779 36.0567 23.9924 35.9171L24.4073 31.9345C24.4217 31.7949 24.5477 31.6933 24.6887 31.7076C24.8297 31.7219 24.9323 31.8467 24.9179 31.9863L24.503 35.9688H24.503ZM21.5563 24.5486C21.6712 24.6311 21.6968 24.7902 21.6136 24.904C21.5303 25.0177 21.3696 25.0431 21.2547 24.9607L17.9788 22.6137C17.8639 22.5312 17.8382 22.3721 17.9215 22.2584C18.0048 22.1446 18.1654 22.1192 18.2803 22.2016L21.5563 24.5486ZM20.8286 29.0566C20.958 28.9994 21.1096 29.0569 21.1674 29.185C21.2251 29.3131 21.1671 29.4632 21.0377 29.5204L17.3469 31.1559C17.2175 31.2131 17.0659 31.1556 17.0081 31.0275C16.9504 30.8994 17.0085 30.7493 17.1378 30.6921L20.8286 29.0566ZM22.2688 27.7327C22.3815 27.8179 22.4031 27.9774 22.3171 28.089C22.249 28.1773 22.1339 28.2091 22.0329 28.1763L19.378 28.5979C19.2381 28.6199 19.1067 28.5254 19.0845 28.3869C19.0623 28.2483 19.1577 28.1182 19.2976 28.0962L21.4506 27.7544L20.7387 27.217C20.7317 27.2117 20.725 27.2061 20.7186 27.2001L20.7184 27.2C20.717 27.1987 20.7156 27.1974 20.7142 27.196L20.7142 27.1959C20.681 27.1637 20.6583 27.1241 20.6467 27.0819L20.6463 27.0804L20.6453 27.0766L20.6446 27.0738L20.644 27.0713L20.643 27.0668L20.6429 27.0663C20.64 27.0525 20.6383 27.0386 20.6378 27.0247L20.6377 27.0228C20.6376 27.0214 20.6376 27.0201 20.6376 27.0187L20.6376 27.0155L20.6376 27.013C20.6379 26.9653 20.6517 26.9173 20.6799 26.875L20.6802 26.8746C20.6811 26.8731 20.6821 26.8717 20.6831 26.8702L20.685 26.8676L20.6865 26.8654C20.6928 26.8568 20.6997 26.8486 20.7071 26.8408L20.7072 26.8406C20.7086 26.8392 20.7099 26.8378 20.7113 26.8365L20.7113 26.8364C20.7328 26.8147 20.7576 26.7975 20.7842 26.7851L21.6133 26.3683L19.5582 25.5917C19.4255 25.5417 19.3589 25.3946 19.4094 25.2632C19.4599 25.1318 19.6084 25.0659 19.7411 25.1159L22.3062 26.0852C22.4295 26.1317 22.4957 26.262 22.4639 26.3856C22.4535 26.4666 22.404 26.5412 22.3248 26.5807L21.3752 27.0581L22.2688 27.7327L22.2688 27.7327ZM23.9644 30.0677C24.0955 30.0138 24.2458 30.0753 24.3002 30.2051C24.3447 30.3113 24.3111 30.4303 24.2256 30.4995L23.2818 32.9482C23.2312 33.0796 23.0827 33.1456 22.95 33.0955C22.8173 33.0455 22.7507 32.8985 22.8012 32.7671L23.5656 30.784L22.7474 31.1225C22.6164 31.1764 22.4661 31.1149 22.4117 30.9851C22.3949 30.9451 22.3892 30.9032 22.3932 30.8629L22.4446 29.9195L20.7412 31.2907C20.6312 31.3792 20.4697 31.3627 20.3803 31.2539C20.2909 31.1451 20.3076 30.9851 20.4175 30.8966L22.5478 29.1817C22.6577 29.0932 22.8193 29.1097 22.9087 29.2186C22.9333 29.2485 22.9498 29.2823 22.9586 29.3175C22.9773 29.3551 22.9869 29.3977 22.9846 29.4425L22.9272 30.4968L23.8906 30.0982C23.9104 30.0868 23.9317 30.0779 23.9539 30.072L23.9644 30.0677V30.0677ZM26.3536 24.8256C26.2226 24.8795 26.0723 24.818 26.0179 24.6883C26.0043 24.6559 25.998 24.6224 25.9982 24.5895C25.9879 24.5428 25.9907 24.4927 26.0091 24.4447L26.9881 21.9049C27.0386 21.7735 27.1871 21.7076 27.3198 21.7576C27.4525 21.8076 27.5191 21.9547 27.4686 22.0861L26.6766 24.1407L27.5706 23.7708C27.7017 23.7169 27.852 23.7784 27.9064 23.9081C27.9232 23.9482 27.9289 23.9901 27.9248 24.0304L27.878 24.8911L29.5287 23.5624C29.6386 23.4739 29.8002 23.4904 29.8895 23.5992C29.9789 23.7081 29.9623 23.8681 29.8523 23.9566L27.8015 25.6074C27.7682 25.6554 27.7188 25.6912 27.6615 25.7077C27.5588 25.7515 27.4352 25.7247 27.3611 25.6346C27.2915 25.5498 27.2862 25.4341 27.3392 25.3452L27.3908 24.3965L26.3536 24.8256ZM25.8177 30.3094L25.8178 30.3094L26.7115 30.8859L26.8504 29.8152C26.8511 29.8015 26.8529 29.7878 26.8558 29.7744C26.8775 29.6397 27.0034 29.5454 27.1411 29.5627C27.2351 29.5744 27.3107 29.6352 27.3451 29.7157L29.0376 31.7769C29.127 31.8858 29.1103 32.0457 29.0004 32.1342C28.8905 32.2227 28.7289 32.2062 28.6395 32.0974L27.2852 30.448L27.1692 31.3419C27.1657 31.3819 27.1525 31.4218 27.1288 31.4578C27.0516 31.5755 26.8927 31.6089 26.7739 31.5325L25.9764 31.018L26.3179 33.1266C26.3401 33.2651 26.2447 33.3952 26.1048 33.4172C25.9649 33.4392 25.8335 33.3447 25.8113 33.2062L25.3765 30.5221C25.3543 30.3836 25.4497 30.2535 25.5896 30.2315C25.6772 30.2177 25.7615 30.2496 25.8177 30.3094H25.8177ZM20.4005 15.4223C20.382 15.4614 20.3787 15.5077 20.3949 15.552L24.7081 27.3636C24.7243 27.4079 24.7568 27.4413 24.7962 27.4596C24.8357 27.4779 24.8825 27.4811 24.9273 27.4651C24.972 27.449 25.0058 27.4169 25.0242 27.3779C25.0427 27.3388 25.046 27.2924 25.0298 27.2481L20.7166 15.4365C20.7004 15.3922 20.6679 15.3588 20.6285 15.3405C20.589 15.3222 20.5422 15.319 20.4975 15.335C20.4527 15.3511 20.4189 15.3832 20.4005 15.4222V15.4223ZM31.6671 31.7924C31.782 31.8749 31.8076 32.034 31.7244 32.1478C31.6411 32.2615 31.4804 32.2869 31.3655 32.2045L28.7136 30.3045C28.5986 30.2221 28.573 30.063 28.6563 29.9492C28.7395 29.8354 28.9002 29.81 29.0151 29.8925L31.6671 31.7924ZM32.9229 23.6972C33.0523 23.6401 33.204 23.6976 33.2617 23.8256C33.3194 23.9537 33.2614 24.1039 33.132 24.1611L29.4412 25.7966C29.3119 25.8537 29.1602 25.7962 29.1024 25.6682C29.0447 25.5401 29.1028 25.3899 29.2321 25.3328L32.9229 23.6972ZM28.0493 27.1606C27.9366 27.0754 27.915 26.9159 28.001 26.8043C28.0028 26.8019 28.0047 26.7996 28.0065 26.7974C28.0448 26.7396 28.1066 26.6974 28.1809 26.6857L30.8918 26.2553C31.0317 26.2333 31.1631 26.3277 31.1853 26.4663C31.2075 26.6048 31.1121 26.7349 30.9722 26.7569L28.8152 27.0994L29.5794 27.6763C29.5864 27.6816 29.5931 27.6872 29.5995 27.6931L29.5997 27.6933C29.6011 27.6946 29.6025 27.6959 29.6039 27.6973L29.6039 27.6973C29.6371 27.7296 29.6598 27.7692 29.6714 27.8114L29.6718 27.8129L29.6728 27.8167L29.6735 27.8195L29.6741 27.822L29.6751 27.8265L29.6752 27.8269C29.6781 27.8408 29.6798 27.8547 29.6803 27.8686L29.6804 27.8705C29.6804 27.8719 29.6805 27.8732 29.6805 27.8746L29.6805 27.8778L29.6805 27.8802C29.6802 27.928 29.6664 27.976 29.6382 28.0183L29.6379 28.0187C29.637 28.0201 29.636 28.0216 29.635 28.023L29.6331 28.0257L29.6316 28.0278C29.6253 28.0364 29.6184 28.0447 29.611 28.0525L29.6109 28.0526C29.6095 28.054 29.6082 28.0554 29.6068 28.0568L29.6068 28.0568C29.5852 28.0785 29.5605 28.0957 29.5339 28.1082L28.7296 28.5124L30.7117 29.2614C30.8443 29.3114 30.9109 29.4585 30.8604 29.5899C30.8099 29.7212 30.6614 29.7872 30.5287 29.7372L27.9636 28.7679C27.8309 28.7179 27.7643 28.5708 27.8148 28.4394C27.8553 28.3342 27.9587 28.2709 28.0665 28.2757L28.9429 27.8351L28.0493 27.1606V27.1606ZM55.2882 27.401L41.2665 37.3536C41.2804 37.4369 41.2854 37.5264 41.2854 37.6281C41.2854 37.7265 41.2852 37.8719 41.2849 38.0109L55.2853 28.0809L55.2882 27.401ZM8.13108 49.7878C7.98875 49.89 7.98897 50.0984 8.13105 50.201C8.22178 50.2653 8.3416 50.2652 8.43234 50.2009L10.0351 49.0553C10.1775 48.9531 10.1773 48.7446 10.0352 48.6421C9.94445 48.5778 9.82463 48.5778 9.73389 48.6421L8.13108 49.7878ZM11.4087 47.4408C11.2664 47.5431 11.2666 47.7515 11.4086 47.8541C11.4994 47.9184 11.6192 47.9183 11.7099 47.854L13.1548 46.8218C13.2971 46.7195 13.2969 46.5111 13.1548 46.4085C13.0641 46.3442 12.9443 46.3443 12.8536 46.4086L11.4087 47.4408H11.4087ZM15.843 44.2729C15.7007 44.3752 15.7009 44.5836 15.8429 44.6861C15.9337 44.7504 16.0535 44.7504 16.1442 44.6861L16.9724 44.0802C17.1148 43.9779 17.1145 43.7695 16.9725 43.6669C16.8817 43.6026 16.7619 43.6027 16.6712 43.667L15.843 44.2729ZM18.08 42.6767C17.9377 42.779 17.9379 42.9874 18.08 43.09C18.1707 43.1543 18.2906 43.1542 18.3813 43.0899L18.7986 42.7916C18.9409 42.6894 18.9407 42.481 18.7986 42.3784C18.7079 42.3141 18.5881 42.3142 18.4974 42.3785L18.08 42.6767V42.6767ZM20.5839 40.8871C20.4416 40.9894 20.4418 41.1978 20.5839 41.3003C20.6746 41.3647 20.7944 41.3646 20.8851 41.3003L22.5544 40.1072C22.6967 40.0049 22.6965 39.7965 22.5544 39.694C22.4637 39.6297 22.3439 39.6297 22.2531 39.694L20.5839 40.8871ZM24.3397 38.2027C24.1973 38.3049 24.1976 38.5134 24.3396 38.6159C24.4304 38.6802 24.5502 38.6802 24.6409 38.6158L26.3101 37.4228C26.4525 37.3205 26.4523 37.1121 26.3102 37.0095C26.2194 36.9452 26.0996 36.9453 26.0089 37.0096L24.3397 38.2027ZM28.0954 35.5182C27.9531 35.6205 27.9533 35.8289 28.0954 35.9315C28.1861 35.9958 28.306 35.9957 28.3967 35.9314L30.0659 34.7383C30.2082 34.6361 30.208 34.4276 30.0659 34.3251C29.9752 34.2608 29.8554 34.2608 29.7647 34.3252L28.0954 35.5182ZM34.8204 30.7262C34.6711 30.8335 34.6794 31.0547 34.8366 31.1507C34.9255 31.2039 35.0363 31.1999 35.1209 31.14L36.4784 30.1736C36.6278 30.0663 36.6194 29.8452 36.4623 29.7492C36.3734 29.6959 36.2625 29.6999 36.178 29.7598L34.8204 30.7262ZM38.2674 28.2725C38.1181 28.3798 38.1264 28.6009 38.2836 28.6969C38.3725 28.7502 38.4833 28.7461 38.5679 28.6862L38.9858 28.3888C39.1351 28.2814 39.1268 28.0603 38.9696 27.9643C38.8807 27.9111 38.7699 27.9151 38.6853 27.975L38.2674 28.2725ZM40.7747 26.4876C40.6254 26.595 40.6337 26.8161 40.7909 26.9121C40.8798 26.9654 40.9906 26.9613 41.0752 26.9014L41.4931 26.6039C41.6424 26.4966 41.6341 26.2755 41.4769 26.1795C41.388 26.1262 41.2772 26.1303 41.1926 26.1902L40.7747 26.4877V26.4876ZM43.2821 24.7028C43.1327 24.8101 43.1411 25.0313 43.2982 25.1273C43.3871 25.1805 43.498 25.1765 43.5825 25.1166L45.2541 23.9267C45.4034 23.8194 45.3951 23.5982 45.2379 23.5022C45.149 23.449 45.0382 23.453 44.9536 23.5129L43.2821 24.7028ZM22.6569 51.9104C21.7762 51.9641 20.9398 51.7947 20.2185 51.377C19.4464 50.9298 18.6171 50.2021 18.2141 49.1639C17.6274 47.6527 17.1795 47.4021 15.6097 47.1156C13.3128 46.6964 12.913 45.5581 12.5467 44.5151C12.2949 43.7982 12.0628 43.1373 10.9569 42.9483C10.0299 42.7899 9.21268 42.4099 8.56489 41.7226C8.20398 41.3397 8.18206 41.1953 8.18206 40.6782V39.7684C8.18206 39.6389 8.19908 39.59 8.2988 39.5189L18.4139 32.3027C18.5671 32.1935 18.7807 32.2279 18.891 32.3796C19.0013 32.5313 18.9665 32.7429 18.8133 32.8521L9.43063 39.5401C9.12834 39.7555 9.09257 39.7135 9.40336 40.0106C9.55578 40.1563 9.7285 40.2805 9.90674 40.389C10.271 40.629 10.666 40.7922 11.0564 40.8608C12.5078 41.1161 13.3548 41.3377 13.8563 42.8594C14.1064 43.6182 14.376 44.121 14.7479 44.4675C15.1169 44.8114 15.6082 45.02 16.3021 45.1907C18.1825 45.6533 18.8782 46.3656 19.7332 48.0453C20.2837 49.1291 21.1356 49.5638 22.2493 49.6417C22.7681 49.678 22.7193 49.6221 23.1274 49.3922L38.0284 38.8163L30.174 33.2434C30.02 33.1342 29.9846 32.9221 30.0949 32.7697C30.2052 32.6172 30.4194 32.5822 30.5734 32.6914L38.6255 38.4045C38.9239 38.6161 38.96 38.5888 38.96 39.0208V40.1856C38.96 40.5171 38.7409 40.6377 38.506 40.807L23.6372 51.5211C23.2104 51.8286 23.2496 51.8743 22.6569 51.9104L22.6569 51.9104ZM38.2738 39.9201V39.4777L23.401 50.0336C23.1679 50.199 23.2108 50.1383 23.2108 50.4259V50.7487C23.2086 50.9777 23.2342 50.975 23.5328 50.7598L38.1137 40.2532C38.2965 40.1215 38.2738 40.1385 38.2738 39.9201H38.2738Z"/>
</mask>
<path d="M19.122 48.3505C18.3608 46.8552 17.8136 46.2611 16.1386 45.849C15.3297 45.65 14.7445 45.3953 14.2787 44.9612C13.8157 44.5296 13.4917 43.9393 13.2049 43.0691C12.7952 41.8261 12.1206 41.7376 10.9384 41.5297C10.4553 41.4447 9.97109 41.2458 9.52875 40.9543C9.37559 40.8534 9.22729 40.7413 9.08564 40.6189C8.8414 40.4079 8.86831 40.3356 8.86831 40.6782C8.86831 41.0199 8.83706 41.0177 9.06617 41.2607C9.6142 41.8422 10.2895 42.1457 11.0722 42.2794C12.5761 42.5364 12.8719 43.3786 13.1928 44.2922C13.4966 45.1574 13.8283 46.1018 15.733 46.4494C17.5474 46.7805 18.1727 47.1722 18.8521 48.9223C19.1953 49.8064 19.9219 50.4209 20.5643 50.793C21.0677 51.0846 21.6459 51.2234 22.2624 51.2414C22.4817 51.2478 22.5247 51.2063 22.5244 50.9716C22.5243 50.8508 22.5241 50.7421 22.5237 50.6297C22.5224 50.2713 22.5798 50.3466 22.2431 50.3337C20.9071 50.2823 19.7341 49.5529 19.122 48.3505L19.122 48.3505ZM52.776 18.5721C52.9254 18.4648 52.9171 18.2437 52.7599 18.1477C52.671 18.0944 52.5601 18.0985 52.4756 18.1584L50.804 19.3483C50.6547 19.4556 50.663 19.6767 50.8202 19.7727C50.9091 19.826 51.0199 19.8219 51.1045 19.762L52.776 18.5721ZM33.0587 33.6257C32.9055 33.5165 32.8707 33.305 32.981 33.1532C33.0913 33.0015 33.3049 32.9671 33.4582 33.0763L40.3897 38.0235C40.6459 38.2064 40.5991 38.2185 40.5991 37.9027V37.6281C40.5991 37.3353 40.5302 37.321 40.3239 37.174L31.5471 30.917C31.3939 30.8078 31.3591 30.5963 31.4694 30.4446C31.5797 30.2929 31.7933 30.2584 31.9465 30.3676L40.7777 36.6633L40.7784 36.6625C40.8286 36.6981 40.8741 36.7328 40.9151 36.7674L55.1414 26.6696L55.1417 26.67C55.2115 26.6188 55.2558 26.5718 55.2779 26.529C55.2909 26.5039 55.2948 26.4789 55.2909 26.4547C55.2851 26.4174 55.2627 26.3734 55.2265 26.3247C55.126 26.1892 54.9443 26.0554 54.7115 25.9376C54.4216 25.7911 54.0514 25.6806 53.6409 25.5581C52.4237 25.1949 50.8767 24.7333 49.3951 22.8179C49.0406 22.3597 48.6805 22.0168 48.3066 21.7537L47.3435 22.4393C47.2589 22.4992 47.1481 22.5032 47.0592 22.45C46.902 22.354 46.8937 22.1328 47.043 22.0255L47.832 21.4639C47.0618 21.0597 46.2241 20.9133 45.2551 20.744L45.2385 20.7411C44.5195 20.6155 43.9233 20.4509 43.4112 20.1565C42.8853 19.8541 42.4629 19.425 42.1111 18.7784C42.0855 18.7314 42.0522 18.6692 42.0188 18.6069C41.7197 18.0481 41.4208 17.4897 40.7172 17.2381L32.5588 23.0491C32.4056 23.1583 32.1919 23.1238 32.0816 22.9721C31.9713 22.8204 32.0061 22.6089 32.1594 22.4996L40.4468 16.5968C40.5292 16.5334 40.6397 16.508 40.7481 16.5376C41.8467 16.8376 42.2355 17.564 42.6247 18.2911C42.6516 18.3415 42.6787 18.3921 42.7142 18.4573C43.0014 18.985 43.3389 19.331 43.7543 19.5699C44.1836 19.8167 44.7103 19.9594 45.3564 20.0723L45.3731 20.0752C46.5369 20.2785 47.5271 20.4516 48.4511 21.0232L48.7146 20.8356C48.7991 20.7757 48.91 20.7717 48.9988 20.8249C49.1561 20.9209 49.1644 21.1421 49.015 21.2494L48.8957 21.3343C49.2488 21.612 49.5946 21.9609 49.9393 22.4065C51.2852 24.1465 52.7131 24.5726 53.8365 24.9078C54.2737 25.0383 54.668 25.1559 55.0224 25.3351C55.3489 25.5002 55.6149 25.7032 55.7787 25.9239C55.8778 26.0574 55.9427 26.2007 55.9665 26.3511C55.9749 26.4043 55.978 26.4575 55.9756 26.5105L55.9681 28.258C55.9677 28.3592 55.9225 28.4498 55.8512 28.5115C55.8441 28.5188 55.8357 28.5258 55.826 28.5327L41.1419 38.9477C40.966 39.1395 40.744 39.1106 40.3564 38.8356V38.8343L33.0587 33.6257L33.0587 33.6257ZM19.809 15.0819L18.9537 12.8242L18.9529 12.8245C18.8625 12.6043 18.9205 12.3996 19.0488 12.2587C19.101 12.2013 19.1651 12.1557 19.2356 12.125C19.3063 12.0941 19.3852 12.0781 19.4668 12.0803C19.6572 12.0853 19.8478 12.183 19.9585 12.414L19.9706 12.4445L20.7858 14.6788C20.8312 14.6915 20.8754 14.7077 20.918 14.7275C21.1166 14.8194 21.2796 14.9861 21.36 15.2057L25.6731 27.0172C25.7535 27.2368 25.7362 27.4681 25.6434 27.6645C25.5505 27.8611 25.3822 28.0225 25.1604 28.1021C24.9387 28.1817 24.7051 28.1646 24.5067 28.0727C24.3081 27.9807 24.1451 27.814 24.0647 27.5945L19.7516 15.7829C19.6712 15.5634 19.6884 15.3321 19.7813 15.1356C19.7899 15.1174 19.7992 15.0995 19.809 15.0819ZM25.8626 22.9186C25.8481 23.0582 25.7221 23.1598 25.5811 23.1455C25.4401 23.1313 25.3375 23.0065 25.3519 22.8669L25.7668 18.8844C25.7812 18.7447 25.9072 18.6431 26.0483 18.6574C26.1893 18.6717 26.2919 18.7965 26.2774 18.9361L25.8626 22.9186ZM24.503 35.9688C24.4886 36.1084 24.3626 36.21 24.2216 36.1957C24.0805 36.1814 23.9779 36.0567 23.9924 35.9171L24.4073 31.9345C24.4217 31.7949 24.5477 31.6933 24.6887 31.7076C24.8297 31.7219 24.9323 31.8467 24.9179 31.9863L24.503 35.9688H24.503ZM21.5563 24.5486C21.6712 24.6311 21.6968 24.7902 21.6136 24.904C21.5303 25.0177 21.3696 25.0431 21.2547 24.9607L17.9788 22.6137C17.8639 22.5312 17.8382 22.3721 17.9215 22.2584C18.0048 22.1446 18.1654 22.1192 18.2803 22.2016L21.5563 24.5486ZM20.8286 29.0566C20.958 28.9994 21.1096 29.0569 21.1674 29.185C21.2251 29.3131 21.1671 29.4632 21.0377 29.5204L17.3469 31.1559C17.2175 31.2131 17.0659 31.1556 17.0081 31.0275C16.9504 30.8994 17.0085 30.7493 17.1378 30.6921L20.8286 29.0566ZM22.2688 27.7327C22.3815 27.8179 22.4031 27.9774 22.3171 28.089C22.249 28.1773 22.1339 28.2091 22.0329 28.1763L19.378 28.5979C19.2381 28.6199 19.1067 28.5254 19.0845 28.3869C19.0623 28.2483 19.1577 28.1182 19.2976 28.0962L21.4506 27.7544L20.7387 27.217C20.7317 27.2117 20.725 27.2061 20.7186 27.2001L20.7184 27.2C20.717 27.1987 20.7156 27.1974 20.7142 27.196L20.7142 27.1959C20.681 27.1637 20.6583 27.1241 20.6467 27.0819L20.6463 27.0804L20.6453 27.0766L20.6446 27.0738L20.644 27.0713L20.643 27.0668L20.6429 27.0663C20.64 27.0525 20.6383 27.0386 20.6378 27.0247L20.6377 27.0228C20.6376 27.0214 20.6376 27.0201 20.6376 27.0187L20.6376 27.0155L20.6376 27.013C20.6379 26.9653 20.6517 26.9173 20.6799 26.875L20.6802 26.8746C20.6811 26.8731 20.6821 26.8717 20.6831 26.8702L20.685 26.8676L20.6865 26.8654C20.6928 26.8568 20.6997 26.8486 20.7071 26.8408L20.7072 26.8406C20.7086 26.8392 20.7099 26.8378 20.7113 26.8365L20.7113 26.8364C20.7328 26.8147 20.7576 26.7975 20.7842 26.7851L21.6133 26.3683L19.5582 25.5917C19.4255 25.5417 19.3589 25.3946 19.4094 25.2632C19.4599 25.1318 19.6084 25.0659 19.7411 25.1159L22.3062 26.0852C22.4295 26.1317 22.4957 26.262 22.4639 26.3856C22.4535 26.4666 22.404 26.5412 22.3248 26.5807L21.3752 27.0581L22.2688 27.7327L22.2688 27.7327ZM23.9644 30.0677C24.0955 30.0138 24.2458 30.0753 24.3002 30.2051C24.3447 30.3113 24.3111 30.4303 24.2256 30.4995L23.2818 32.9482C23.2312 33.0796 23.0827 33.1456 22.95 33.0955C22.8173 33.0455 22.7507 32.8985 22.8012 32.7671L23.5656 30.784L22.7474 31.1225C22.6164 31.1764 22.4661 31.1149 22.4117 30.9851C22.3949 30.9451 22.3892 30.9032 22.3932 30.8629L22.4446 29.9195L20.7412 31.2907C20.6312 31.3792 20.4697 31.3627 20.3803 31.2539C20.2909 31.1451 20.3076 30.9851 20.4175 30.8966L22.5478 29.1817C22.6577 29.0932 22.8193 29.1097 22.9087 29.2186C22.9333 29.2485 22.9498 29.2823 22.9586 29.3175C22.9773 29.3551 22.9869 29.3977 22.9846 29.4425L22.9272 30.4968L23.8906 30.0982C23.9104 30.0868 23.9317 30.0779 23.9539 30.072L23.9644 30.0677V30.0677ZM26.3536 24.8256C26.2226 24.8795 26.0723 24.818 26.0179 24.6883C26.0043 24.6559 25.998 24.6224 25.9982 24.5895C25.9879 24.5428 25.9907 24.4927 26.0091 24.4447L26.9881 21.9049C27.0386 21.7735 27.1871 21.7076 27.3198 21.7576C27.4525 21.8076 27.5191 21.9547 27.4686 22.0861L26.6766 24.1407L27.5706 23.7708C27.7017 23.7169 27.852 23.7784 27.9064 23.9081C27.9232 23.9482 27.9289 23.9901 27.9248 24.0304L27.878 24.8911L29.5287 23.5624C29.6386 23.4739 29.8002 23.4904 29.8895 23.5992C29.9789 23.7081 29.9623 23.8681 29.8523 23.9566L27.8015 25.6074C27.7682 25.6554 27.7188 25.6912 27.6615 25.7077C27.5588 25.7515 27.4352 25.7247 27.3611 25.6346C27.2915 25.5498 27.2862 25.4341 27.3392 25.3452L27.3908 24.3965L26.3536 24.8256ZM25.8177 30.3094L25.8178 30.3094L26.7115 30.8859L26.8504 29.8152C26.8511 29.8015 26.8529 29.7878 26.8558 29.7744C26.8775 29.6397 27.0034 29.5454 27.1411 29.5627C27.2351 29.5744 27.3107 29.6352 27.3451 29.7157L29.0376 31.7769C29.127 31.8858 29.1103 32.0457 29.0004 32.1342C28.8905 32.2227 28.7289 32.2062 28.6395 32.0974L27.2852 30.448L27.1692 31.3419C27.1657 31.3819 27.1525 31.4218 27.1288 31.4578C27.0516 31.5755 26.8927 31.6089 26.7739 31.5325L25.9764 31.018L26.3179 33.1266C26.3401 33.2651 26.2447 33.3952 26.1048 33.4172C25.9649 33.4392 25.8335 33.3447 25.8113 33.2062L25.3765 30.5221C25.3543 30.3836 25.4497 30.2535 25.5896 30.2315C25.6772 30.2177 25.7615 30.2496 25.8177 30.3094H25.8177ZM20.4005 15.4223C20.382 15.4614 20.3787 15.5077 20.3949 15.552L24.7081 27.3636C24.7243 27.4079 24.7568 27.4413 24.7962 27.4596C24.8357 27.4779 24.8825 27.4811 24.9273 27.4651C24.972 27.449 25.0058 27.4169 25.0242 27.3779C25.0427 27.3388 25.046 27.2924 25.0298 27.2481L20.7166 15.4365C20.7004 15.3922 20.6679 15.3588 20.6285 15.3405C20.589 15.3222 20.5422 15.319 20.4975 15.335C20.4527 15.3511 20.4189 15.3832 20.4005 15.4222V15.4223ZM31.6671 31.7924C31.782 31.8749 31.8076 32.034 31.7244 32.1478C31.6411 32.2615 31.4804 32.2869 31.3655 32.2045L28.7136 30.3045C28.5986 30.2221 28.573 30.063 28.6563 29.9492C28.7395 29.8354 28.9002 29.81 29.0151 29.8925L31.6671 31.7924ZM32.9229 23.6972C33.0523 23.6401 33.204 23.6976 33.2617 23.8256C33.3194 23.9537 33.2614 24.1039 33.132 24.1611L29.4412 25.7966C29.3119 25.8537 29.1602 25.7962 29.1024 25.6682C29.0447 25.5401 29.1028 25.3899 29.2321 25.3328L32.9229 23.6972ZM28.0493 27.1606C27.9366 27.0754 27.915 26.9159 28.001 26.8043C28.0028 26.8019 28.0047 26.7996 28.0065 26.7974C28.0448 26.7396 28.1066 26.6974 28.1809 26.6857L30.8918 26.2553C31.0317 26.2333 31.1631 26.3277 31.1853 26.4663C31.2075 26.6048 31.1121 26.7349 30.9722 26.7569L28.8152 27.0994L29.5794 27.6763C29.5864 27.6816 29.5931 27.6872 29.5995 27.6931L29.5997 27.6933C29.6011 27.6946 29.6025 27.6959 29.6039 27.6973L29.6039 27.6973C29.6371 27.7296 29.6598 27.7692 29.6714 27.8114L29.6718 27.8129L29.6728 27.8167L29.6735 27.8195L29.6741 27.822L29.6751 27.8265L29.6752 27.8269C29.6781 27.8408 29.6798 27.8547 29.6803 27.8686L29.6804 27.8705C29.6804 27.8719 29.6805 27.8732 29.6805 27.8746L29.6805 27.8778L29.6805 27.8802C29.6802 27.928 29.6664 27.976 29.6382 28.0183L29.6379 28.0187C29.637 28.0201 29.636 28.0216 29.635 28.023L29.6331 28.0257L29.6316 28.0278C29.6253 28.0364 29.6184 28.0447 29.611 28.0525L29.6109 28.0526C29.6095 28.054 29.6082 28.0554 29.6068 28.0568L29.6068 28.0568C29.5852 28.0785 29.5605 28.0957 29.5339 28.1082L28.7296 28.5124L30.7117 29.2614C30.8443 29.3114 30.9109 29.4585 30.8604 29.5899C30.8099 29.7212 30.6614 29.7872 30.5287 29.7372L27.9636 28.7679C27.8309 28.7179 27.7643 28.5708 27.8148 28.4394C27.8553 28.3342 27.9587 28.2709 28.0665 28.2757L28.9429 27.8351L28.0493 27.1606V27.1606ZM55.2882 27.401L41.2665 37.3536C41.2804 37.4369 41.2854 37.5264 41.2854 37.6281C41.2854 37.7265 41.2852 37.8719 41.2849 38.0109L55.2853 28.0809L55.2882 27.401ZM8.13108 49.7878C7.98875 49.89 7.98897 50.0984 8.13105 50.201C8.22178 50.2653 8.3416 50.2652 8.43234 50.2009L10.0351 49.0553C10.1775 48.9531 10.1773 48.7446 10.0352 48.6421C9.94445 48.5778 9.82463 48.5778 9.73389 48.6421L8.13108 49.7878ZM11.4087 47.4408C11.2664 47.5431 11.2666 47.7515 11.4086 47.8541C11.4994 47.9184 11.6192 47.9183 11.7099 47.854L13.1548 46.8218C13.2971 46.7195 13.2969 46.5111 13.1548 46.4085C13.0641 46.3442 12.9443 46.3443 12.8536 46.4086L11.4087 47.4408H11.4087ZM15.843 44.2729C15.7007 44.3752 15.7009 44.5836 15.8429 44.6861C15.9337 44.7504 16.0535 44.7504 16.1442 44.6861L16.9724 44.0802C17.1148 43.9779 17.1145 43.7695 16.9725 43.6669C16.8817 43.6026 16.7619 43.6027 16.6712 43.667L15.843 44.2729ZM18.08 42.6767C17.9377 42.779 17.9379 42.9874 18.08 43.09C18.1707 43.1543 18.2906 43.1542 18.3813 43.0899L18.7986 42.7916C18.9409 42.6894 18.9407 42.481 18.7986 42.3784C18.7079 42.3141 18.5881 42.3142 18.4974 42.3785L18.08 42.6767V42.6767ZM20.5839 40.8871C20.4416 40.9894 20.4418 41.1978 20.5839 41.3003C20.6746 41.3647 20.7944 41.3646 20.8851 41.3003L22.5544 40.1072C22.6967 40.0049 22.6965 39.7965 22.5544 39.694C22.4637 39.6297 22.3439 39.6297 22.2531 39.694L20.5839 40.8871ZM24.3397 38.2027C24.1973 38.3049 24.1976 38.5134 24.3396 38.6159C24.4304 38.6802 24.5502 38.6802 24.6409 38.6158L26.3101 37.4228C26.4525 37.3205 26.4523 37.1121 26.3102 37.0095C26.2194 36.9452 26.0996 36.9453 26.0089 37.0096L24.3397 38.2027ZM28.0954 35.5182C27.9531 35.6205 27.9533 35.8289 28.0954 35.9315C28.1861 35.9958 28.306 35.9957 28.3967 35.9314L30.0659 34.7383C30.2082 34.6361 30.208 34.4276 30.0659 34.3251C29.9752 34.2608 29.8554 34.2608 29.7647 34.3252L28.0954 35.5182ZM34.8204 30.7262C34.6711 30.8335 34.6794 31.0547 34.8366 31.1507C34.9255 31.2039 35.0363 31.1999 35.1209 31.14L36.4784 30.1736C36.6278 30.0663 36.6194 29.8452 36.4623 29.7492C36.3734 29.6959 36.2625 29.6999 36.178 29.7598L34.8204 30.7262ZM38.2674 28.2725C38.1181 28.3798 38.1264 28.6009 38.2836 28.6969C38.3725 28.7502 38.4833 28.7461 38.5679 28.6862L38.9858 28.3888C39.1351 28.2814 39.1268 28.0603 38.9696 27.9643C38.8807 27.9111 38.7699 27.9151 38.6853 27.975L38.2674 28.2725ZM40.7747 26.4876C40.6254 26.595 40.6337 26.8161 40.7909 26.9121C40.8798 26.9654 40.9906 26.9613 41.0752 26.9014L41.4931 26.6039C41.6424 26.4966 41.6341 26.2755 41.4769 26.1795C41.388 26.1262 41.2772 26.1303 41.1926 26.1902L40.7747 26.4877V26.4876ZM43.2821 24.7028C43.1327 24.8101 43.1411 25.0313 43.2982 25.1273C43.3871 25.1805 43.498 25.1765 43.5825 25.1166L45.2541 23.9267C45.4034 23.8194 45.3951 23.5982 45.2379 23.5022C45.149 23.449 45.0382 23.453 44.9536 23.5129L43.2821 24.7028ZM22.6569 51.9104C21.7762 51.9641 20.9398 51.7947 20.2185 51.377C19.4464 50.9298 18.6171 50.2021 18.2141 49.1639C17.6274 47.6527 17.1795 47.4021 15.6097 47.1156C13.3128 46.6964 12.913 45.5581 12.5467 44.5151C12.2949 43.7982 12.0628 43.1373 10.9569 42.9483C10.0299 42.7899 9.21268 42.4099 8.56489 41.7226C8.20398 41.3397 8.18206 41.1953 8.18206 40.6782V39.7684C8.18206 39.6389 8.19908 39.59 8.2988 39.5189L18.4139 32.3027C18.5671 32.1935 18.7807 32.2279 18.891 32.3796C19.0013 32.5313 18.9665 32.7429 18.8133 32.8521L9.43063 39.5401C9.12834 39.7555 9.09257 39.7135 9.40336 40.0106C9.55578 40.1563 9.7285 40.2805 9.90674 40.389C10.271 40.629 10.666 40.7922 11.0564 40.8608C12.5078 41.1161 13.3548 41.3377 13.8563 42.8594C14.1064 43.6182 14.376 44.121 14.7479 44.4675C15.1169 44.8114 15.6082 45.02 16.3021 45.1907C18.1825 45.6533 18.8782 46.3656 19.7332 48.0453C20.2837 49.1291 21.1356 49.5638 22.2493 49.6417C22.7681 49.678 22.7193 49.6221 23.1274 49.3922L38.0284 38.8163L30.174 33.2434C30.02 33.1342 29.9846 32.9221 30.0949 32.7697C30.2052 32.6172 30.4194 32.5822 30.5734 32.6914L38.6255 38.4045C38.9239 38.6161 38.96 38.5888 38.96 39.0208V40.1856C38.96 40.5171 38.7409 40.6377 38.506 40.807L23.6372 51.5211C23.2104 51.8286 23.2496 51.8743 22.6569 51.9104L22.6569 51.9104ZM38.2738 39.9201V39.4777L23.401 50.0336C23.1679 50.199 23.2108 50.1383 23.2108 50.4259V50.7487C23.2086 50.9777 23.2342 50.975 23.5328 50.7598L38.1137 40.2532C38.2965 40.1215 38.2738 40.1385 38.2738 39.9201H38.2738Z" fill="#252525"/>
<path d="M19.122 48.3505C18.3608 46.8552 17.8136 46.2611 16.1386 45.849C15.3297 45.65 14.7445 45.3953 14.2787 44.9612C13.8157 44.5296 13.4917 43.9393 13.2049 43.0691C12.7952 41.8261 12.1206 41.7376 10.9384 41.5297C10.4553 41.4447 9.97109 41.2458 9.52875 40.9543C9.37559 40.8534 9.22729 40.7413 9.08564 40.6189C8.8414 40.4079 8.86831 40.3356 8.86831 40.6782C8.86831 41.0199 8.83706 41.0177 9.06617 41.2607C9.6142 41.8422 10.2895 42.1457 11.0722 42.2794C12.5761 42.5364 12.8719 43.3786 13.1928 44.2922C13.4966 45.1574 13.8283 46.1018 15.733 46.4494C17.5474 46.7805 18.1727 47.1722 18.8521 48.9223C19.1953 49.8064 19.9219 50.4209 20.5643 50.793C21.0677 51.0846 21.6459 51.2234 22.2624 51.2414C22.4817 51.2478 22.5247 51.2063 22.5244 50.9716C22.5243 50.8508 22.5241 50.7421 22.5237 50.6297C22.5224 50.2713 22.5798 50.3466 22.2431 50.3337C20.9071 50.2823 19.7341 49.5529 19.122 48.3505L19.122 48.3505ZM52.776 18.5721C52.9254 18.4648 52.9171 18.2437 52.7599 18.1477C52.671 18.0944 52.5601 18.0985 52.4756 18.1584L50.804 19.3483C50.6547 19.4556 50.663 19.6767 50.8202 19.7727C50.9091 19.826 51.0199 19.8219 51.1045 19.762L52.776 18.5721ZM33.0587 33.6257C32.9055 33.5165 32.8707 33.305 32.981 33.1532C33.0913 33.0015 33.3049 32.9671 33.4582 33.0763L40.3897 38.0235C40.6459 38.2064 40.5991 38.2185 40.5991 37.9027V37.6281C40.5991 37.3353 40.5302 37.321 40.3239 37.174L31.5471 30.917C31.3939 30.8078 31.3591 30.5963 31.4694 30.4446C31.5797 30.2929 31.7933 30.2584 31.9465 30.3676L40.7777 36.6633L40.7784 36.6625C40.8286 36.6981 40.8741 36.7328 40.9151 36.7674L55.1414 26.6696L55.1417 26.67C55.2115 26.6188 55.2558 26.5718 55.2779 26.529C55.2909 26.5039 55.2948 26.4789 55.2909 26.4547C55.2851 26.4174 55.2627 26.3734 55.2265 26.3247C55.126 26.1892 54.9443 26.0554 54.7115 25.9376C54.4216 25.7911 54.0514 25.6806 53.6409 25.5581C52.4237 25.1949 50.8767 24.7333 49.3951 22.8179C49.0406 22.3597 48.6805 22.0168 48.3066 21.7537L47.3435 22.4393C47.2589 22.4992 47.1481 22.5032 47.0592 22.45C46.902 22.354 46.8937 22.1328 47.043 22.0255L47.832 21.4639C47.0618 21.0597 46.2241 20.9133 45.2551 20.744L45.2385 20.7411C44.5195 20.6155 43.9233 20.4509 43.4112 20.1565C42.8853 19.8541 42.4629 19.425 42.1111 18.7784C42.0855 18.7314 42.0522 18.6692 42.0188 18.6069C41.7197 18.0481 41.4208 17.4897 40.7172 17.2381L32.5588 23.0491C32.4056 23.1583 32.1919 23.1238 32.0816 22.9721C31.9713 22.8204 32.0061 22.6089 32.1594 22.4996L40.4468 16.5968C40.5292 16.5334 40.6397 16.508 40.7481 16.5376C41.8467 16.8376 42.2355 17.564 42.6247 18.2911C42.6516 18.3415 42.6787 18.3921 42.7142 18.4573C43.0014 18.985 43.3389 19.331 43.7543 19.5699C44.1836 19.8167 44.7103 19.9594 45.3564 20.0723L45.3731 20.0752C46.5369 20.2785 47.5271 20.4516 48.4511 21.0232L48.7146 20.8356C48.7991 20.7757 48.91 20.7717 48.9988 20.8249C49.1561 20.9209 49.1644 21.1421 49.015 21.2494L48.8957 21.3343C49.2488 21.612 49.5946 21.9609 49.9393 22.4065C51.2852 24.1465 52.7131 24.5726 53.8365 24.9078C54.2737 25.0383 54.668 25.1559 55.0224 25.3351C55.3489 25.5002 55.6149 25.7032 55.7787 25.9239C55.8778 26.0574 55.9427 26.2007 55.9665 26.3511C55.9749 26.4043 55.978 26.4575 55.9756 26.5105L55.9681 28.258C55.9677 28.3592 55.9225 28.4498 55.8512 28.5115C55.8441 28.5188 55.8357 28.5258 55.826 28.5327L41.1419 38.9477C40.966 39.1395 40.744 39.1106 40.3564 38.8356V38.8343L33.0587 33.6257L33.0587 33.6257ZM19.809 15.0819L18.9537 12.8242L18.9529 12.8245C18.8625 12.6043 18.9205 12.3996 19.0488 12.2587C19.101 12.2013 19.1651 12.1557 19.2356 12.125C19.3063 12.0941 19.3852 12.0781 19.4668 12.0803C19.6572 12.0853 19.8478 12.183 19.9585 12.414L19.9706 12.4445L20.7858 14.6788C20.8312 14.6915 20.8754 14.7077 20.918 14.7275C21.1166 14.8194 21.2796 14.9861 21.36 15.2057L25.6731 27.0172C25.7535 27.2368 25.7362 27.4681 25.6434 27.6645C25.5505 27.8611 25.3822 28.0225 25.1604 28.1021C24.9387 28.1817 24.7051 28.1646 24.5067 28.0727C24.3081 27.9807 24.1451 27.814 24.0647 27.5945L19.7516 15.7829C19.6712 15.5634 19.6884 15.3321 19.7813 15.1356C19.7899 15.1174 19.7992 15.0995 19.809 15.0819ZM25.8626 22.9186C25.8481 23.0582 25.7221 23.1598 25.5811 23.1455C25.4401 23.1313 25.3375 23.0065 25.3519 22.8669L25.7668 18.8844C25.7812 18.7447 25.9072 18.6431 26.0483 18.6574C26.1893 18.6717 26.2919 18.7965 26.2774 18.9361L25.8626 22.9186ZM24.503 35.9688C24.4886 36.1084 24.3626 36.21 24.2216 36.1957C24.0805 36.1814 23.9779 36.0567 23.9924 35.9171L24.4073 31.9345C24.4217 31.7949 24.5477 31.6933 24.6887 31.7076C24.8297 31.7219 24.9323 31.8467 24.9179 31.9863L24.503 35.9688H24.503ZM21.5563 24.5486C21.6712 24.6311 21.6968 24.7902 21.6136 24.904C21.5303 25.0177 21.3696 25.0431 21.2547 24.9607L17.9788 22.6137C17.8639 22.5312 17.8382 22.3721 17.9215 22.2584C18.0048 22.1446 18.1654 22.1192 18.2803 22.2016L21.5563 24.5486ZM20.8286 29.0566C20.958 28.9994 21.1096 29.0569 21.1674 29.185C21.2251 29.3131 21.1671 29.4632 21.0377 29.5204L17.3469 31.1559C17.2175 31.2131 17.0659 31.1556 17.0081 31.0275C16.9504 30.8994 17.0085 30.7493 17.1378 30.6921L20.8286 29.0566ZM22.2688 27.7327C22.3815 27.8179 22.4031 27.9774 22.3171 28.089C22.249 28.1773 22.1339 28.2091 22.0329 28.1763L19.378 28.5979C19.2381 28.6199 19.1067 28.5254 19.0845 28.3869C19.0623 28.2483 19.1577 28.1182 19.2976 28.0962L21.4506 27.7544L20.7387 27.217C20.7317 27.2117 20.725 27.2061 20.7186 27.2001L20.7184 27.2C20.717 27.1987 20.7156 27.1974 20.7142 27.196L20.7142 27.1959C20.681 27.1637 20.6583 27.1241 20.6467 27.0819L20.6463 27.0804L20.6453 27.0766L20.6446 27.0738L20.644 27.0713L20.643 27.0668L20.6429 27.0663C20.64 27.0525 20.6383 27.0386 20.6378 27.0247L20.6377 27.0228C20.6376 27.0214 20.6376 27.0201 20.6376 27.0187L20.6376 27.0155L20.6376 27.013C20.6379 26.9653 20.6517 26.9173 20.6799 26.875L20.6802 26.8746C20.6811 26.8731 20.6821 26.8717 20.6831 26.8702L20.685 26.8676L20.6865 26.8654C20.6928 26.8568 20.6997 26.8486 20.7071 26.8408L20.7072 26.8406C20.7086 26.8392 20.7099 26.8378 20.7113 26.8365L20.7113 26.8364C20.7328 26.8147 20.7576 26.7975 20.7842 26.7851L21.6133 26.3683L19.5582 25.5917C19.4255 25.5417 19.3589 25.3946 19.4094 25.2632C19.4599 25.1318 19.6084 25.0659 19.7411 25.1159L22.3062 26.0852C22.4295 26.1317 22.4957 26.262 22.4639 26.3856C22.4535 26.4666 22.404 26.5412 22.3248 26.5807L21.3752 27.0581L22.2688 27.7327L22.2688 27.7327ZM23.9644 30.0677C24.0955 30.0138 24.2458 30.0753 24.3002 30.2051C24.3447 30.3113 24.3111 30.4303 24.2256 30.4995L23.2818 32.9482C23.2312 33.0796 23.0827 33.1456 22.95 33.0955C22.8173 33.0455 22.7507 32.8985 22.8012 32.7671L23.5656 30.784L22.7474 31.1225C22.6164 31.1764 22.4661 31.1149 22.4117 30.9851C22.3949 30.9451 22.3892 30.9032 22.3932 30.8629L22.4446 29.9195L20.7412 31.2907C20.6312 31.3792 20.4697 31.3627 20.3803 31.2539C20.2909 31.1451 20.3076 30.9851 20.4175 30.8966L22.5478 29.1817C22.6577 29.0932 22.8193 29.1097 22.9087 29.2186C22.9333 29.2485 22.9498 29.2823 22.9586 29.3175C22.9773 29.3551 22.9869 29.3977 22.9846 29.4425L22.9272 30.4968L23.8906 30.0982C23.9104 30.0868 23.9317 30.0779 23.9539 30.072L23.9644 30.0677V30.0677ZM26.3536 24.8256C26.2226 24.8795 26.0723 24.818 26.0179 24.6883C26.0043 24.6559 25.998 24.6224 25.9982 24.5895C25.9879 24.5428 25.9907 24.4927 26.0091 24.4447L26.9881 21.9049C27.0386 21.7735 27.1871 21.7076 27.3198 21.7576C27.4525 21.8076 27.5191 21.9547 27.4686 22.0861L26.6766 24.1407L27.5706 23.7708C27.7017 23.7169 27.852 23.7784 27.9064 23.9081C27.9232 23.9482 27.9289 23.9901 27.9248 24.0304L27.878 24.8911L29.5287 23.5624C29.6386 23.4739 29.8002 23.4904 29.8895 23.5992C29.9789 23.7081 29.9623 23.8681 29.8523 23.9566L27.8015 25.6074C27.7682 25.6554 27.7188 25.6912 27.6615 25.7077C27.5588 25.7515 27.4352 25.7247 27.3611 25.6346C27.2915 25.5498 27.2862 25.4341 27.3392 25.3452L27.3908 24.3965L26.3536 24.8256ZM25.8177 30.3094L25.8178 30.3094L26.7115 30.8859L26.8504 29.8152C26.8511 29.8015 26.8529 29.7878 26.8558 29.7744C26.8775 29.6397 27.0034 29.5454 27.1411 29.5627C27.2351 29.5744 27.3107 29.6352 27.3451 29.7157L29.0376 31.7769C29.127 31.8858 29.1103 32.0457 29.0004 32.1342C28.8905 32.2227 28.7289 32.2062 28.6395 32.0974L27.2852 30.448L27.1692 31.3419C27.1657 31.3819 27.1525 31.4218 27.1288 31.4578C27.0516 31.5755 26.8927 31.6089 26.7739 31.5325L25.9764 31.018L26.3179 33.1266C26.3401 33.2651 26.2447 33.3952 26.1048 33.4172C25.9649 33.4392 25.8335 33.3447 25.8113 33.2062L25.3765 30.5221C25.3543 30.3836 25.4497 30.2535 25.5896 30.2315C25.6772 30.2177 25.7615 30.2496 25.8177 30.3094H25.8177ZM20.4005 15.4223C20.382 15.4614 20.3787 15.5077 20.3949 15.552L24.7081 27.3636C24.7243 27.4079 24.7568 27.4413 24.7962 27.4596C24.8357 27.4779 24.8825 27.4811 24.9273 27.4651C24.972 27.449 25.0058 27.4169 25.0242 27.3779C25.0427 27.3388 25.046 27.2924 25.0298 27.2481L20.7166 15.4365C20.7004 15.3922 20.6679 15.3588 20.6285 15.3405C20.589 15.3222 20.5422 15.319 20.4975 15.335C20.4527 15.3511 20.4189 15.3832 20.4005 15.4222V15.4223ZM31.6671 31.7924C31.782 31.8749 31.8076 32.034 31.7244 32.1478C31.6411 32.2615 31.4804 32.2869 31.3655 32.2045L28.7136 30.3045C28.5986 30.2221 28.573 30.063 28.6563 29.9492C28.7395 29.8354 28.9002 29.81 29.0151 29.8925L31.6671 31.7924ZM32.9229 23.6972C33.0523 23.6401 33.204 23.6976 33.2617 23.8256C33.3194 23.9537 33.2614 24.1039 33.132 24.1611L29.4412 25.7966C29.3119 25.8537 29.1602 25.7962 29.1024 25.6682C29.0447 25.5401 29.1028 25.3899 29.2321 25.3328L32.9229 23.6972ZM28.0493 27.1606C27.9366 27.0754 27.915 26.9159 28.001 26.8043C28.0028 26.8019 28.0047 26.7996 28.0065 26.7974C28.0448 26.7396 28.1066 26.6974 28.1809 26.6857L30.8918 26.2553C31.0317 26.2333 31.1631 26.3277 31.1853 26.4663C31.2075 26.6048 31.1121 26.7349 30.9722 26.7569L28.8152 27.0994L29.5794 27.6763C29.5864 27.6816 29.5931 27.6872 29.5995 27.6931L29.5997 27.6933C29.6011 27.6946 29.6025 27.6959 29.6039 27.6973L29.6039 27.6973C29.6371 27.7296 29.6598 27.7692 29.6714 27.8114L29.6718 27.8129L29.6728 27.8167L29.6735 27.8195L29.6741 27.822L29.6751 27.8265L29.6752 27.8269C29.6781 27.8408 29.6798 27.8547 29.6803 27.8686L29.6804 27.8705C29.6804 27.8719 29.6805 27.8732 29.6805 27.8746L29.6805 27.8778L29.6805 27.8802C29.6802 27.928 29.6664 27.976 29.6382 28.0183L29.6379 28.0187C29.637 28.0201 29.636 28.0216 29.635 28.023L29.6331 28.0257L29.6316 28.0278C29.6253 28.0364 29.6184 28.0447 29.611 28.0525L29.6109 28.0526C29.6095 28.054 29.6082 28.0554 29.6068 28.0568L29.6068 28.0568C29.5852 28.0785 29.5605 28.0957 29.5339 28.1082L28.7296 28.5124L30.7117 29.2614C30.8443 29.3114 30.9109 29.4585 30.8604 29.5899C30.8099 29.7212 30.6614 29.7872 30.5287 29.7372L27.9636 28.7679C27.8309 28.7179 27.7643 28.5708 27.8148 28.4394C27.8553 28.3342 27.9587 28.2709 28.0665 28.2757L28.9429 27.8351L28.0493 27.1606V27.1606ZM55.2882 27.401L41.2665 37.3536C41.2804 37.4369 41.2854 37.5264 41.2854 37.6281C41.2854 37.7265 41.2852 37.8719 41.2849 38.0109L55.2853 28.0809L55.2882 27.401ZM8.13108 49.7878C7.98875 49.89 7.98897 50.0984 8.13105 50.201C8.22178 50.2653 8.3416 50.2652 8.43234 50.2009L10.0351 49.0553C10.1775 48.9531 10.1773 48.7446 10.0352 48.6421C9.94445 48.5778 9.82463 48.5778 9.73389 48.6421L8.13108 49.7878ZM11.4087 47.4408C11.2664 47.5431 11.2666 47.7515 11.4086 47.8541C11.4994 47.9184 11.6192 47.9183 11.7099 47.854L13.1548 46.8218C13.2971 46.7195 13.2969 46.5111 13.1548 46.4085C13.0641 46.3442 12.9443 46.3443 12.8536 46.4086L11.4087 47.4408H11.4087ZM15.843 44.2729C15.7007 44.3752 15.7009 44.5836 15.8429 44.6861C15.9337 44.7504 16.0535 44.7504 16.1442 44.6861L16.9724 44.0802C17.1148 43.9779 17.1145 43.7695 16.9725 43.6669C16.8817 43.6026 16.7619 43.6027 16.6712 43.667L15.843 44.2729ZM18.08 42.6767C17.9377 42.779 17.9379 42.9874 18.08 43.09C18.1707 43.1543 18.2906 43.1542 18.3813 43.0899L18.7986 42.7916C18.9409 42.6894 18.9407 42.481 18.7986 42.3784C18.7079 42.3141 18.5881 42.3142 18.4974 42.3785L18.08 42.6767V42.6767ZM20.5839 40.8871C20.4416 40.9894 20.4418 41.1978 20.5839 41.3003C20.6746 41.3647 20.7944 41.3646 20.8851 41.3003L22.5544 40.1072C22.6967 40.0049 22.6965 39.7965 22.5544 39.694C22.4637 39.6297 22.3439 39.6297 22.2531 39.694L20.5839 40.8871ZM24.3397 38.2027C24.1973 38.3049 24.1976 38.5134 24.3396 38.6159C24.4304 38.6802 24.5502 38.6802 24.6409 38.6158L26.3101 37.4228C26.4525 37.3205 26.4523 37.1121 26.3102 37.0095C26.2194 36.9452 26.0996 36.9453 26.0089 37.0096L24.3397 38.2027ZM28.0954 35.5182C27.9531 35.6205 27.9533 35.8289 28.0954 35.9315C28.1861 35.9958 28.306 35.9957 28.3967 35.9314L30.0659 34.7383C30.2082 34.6361 30.208 34.4276 30.0659 34.3251C29.9752 34.2608 29.8554 34.2608 29.7647 34.3252L28.0954 35.5182ZM34.8204 30.7262C34.6711 30.8335 34.6794 31.0547 34.8366 31.1507C34.9255 31.2039 35.0363 31.1999 35.1209 31.14L36.4784 30.1736C36.6278 30.0663 36.6194 29.8452 36.4623 29.7492C36.3734 29.6959 36.2625 29.6999 36.178 29.7598L34.8204 30.7262ZM38.2674 28.2725C38.1181 28.3798 38.1264 28.6009 38.2836 28.6969C38.3725 28.7502 38.4833 28.7461 38.5679 28.6862L38.9858 28.3888C39.1351 28.2814 39.1268 28.0603 38.9696 27.9643C38.8807 27.9111 38.7699 27.9151 38.6853 27.975L38.2674 28.2725ZM40.7747 26.4876C40.6254 26.595 40.6337 26.8161 40.7909 26.9121C40.8798 26.9654 40.9906 26.9613 41.0752 26.9014L41.4931 26.6039C41.6424 26.4966 41.6341 26.2755 41.4769 26.1795C41.388 26.1262 41.2772 26.1303 41.1926 26.1902L40.7747 26.4877V26.4876ZM43.2821 24.7028C43.1327 24.8101 43.1411 25.0313 43.2982 25.1273C43.3871 25.1805 43.498 25.1765 43.5825 25.1166L45.2541 23.9267C45.4034 23.8194 45.3951 23.5982 45.2379 23.5022C45.149 23.449 45.0382 23.453 44.9536 23.5129L43.2821 24.7028ZM22.6569 51.9104C21.7762 51.9641 20.9398 51.7947 20.2185 51.377C19.4464 50.9298 18.6171 50.2021 18.2141 49.1639C17.6274 47.6527 17.1795 47.4021 15.6097 47.1156C13.3128 46.6964 12.913 45.5581 12.5467 44.5151C12.2949 43.7982 12.0628 43.1373 10.9569 42.9483C10.0299 42.7899 9.21268 42.4099 8.56489 41.7226C8.20398 41.3397 8.18206 41.1953 8.18206 40.6782V39.7684C8.18206 39.6389 8.19908 39.59 8.2988 39.5189L18.4139 32.3027C18.5671 32.1935 18.7807 32.2279 18.891 32.3796C19.0013 32.5313 18.9665 32.7429 18.8133 32.8521L9.43063 39.5401C9.12834 39.7555 9.09257 39.7135 9.40336 40.0106C9.55578 40.1563 9.7285 40.2805 9.90674 40.389C10.271 40.629 10.666 40.7922 11.0564 40.8608C12.5078 41.1161 13.3548 41.3377 13.8563 42.8594C14.1064 43.6182 14.376 44.121 14.7479 44.4675C15.1169 44.8114 15.6082 45.02 16.3021 45.1907C18.1825 45.6533 18.8782 46.3656 19.7332 48.0453C20.2837 49.1291 21.1356 49.5638 22.2493 49.6417C22.7681 49.678 22.7193 49.6221 23.1274 49.3922L38.0284 38.8163L30.174 33.2434C30.02 33.1342 29.9846 32.9221 30.0949 32.7697C30.2052 32.6172 30.4194 32.5822 30.5734 32.6914L38.6255 38.4045C38.9239 38.6161 38.96 38.5888 38.96 39.0208V40.1856C38.96 40.5171 38.7409 40.6377 38.506 40.807L23.6372 51.5211C23.2104 51.8286 23.2496 51.8743 22.6569 51.9104L22.6569 51.9104ZM38.2738 39.9201V39.4777L23.401 50.0336C23.1679 50.199 23.2108 50.1383 23.2108 50.4259V50.7487C23.2086 50.9777 23.2342 50.975 23.5328 50.7598L38.1137 40.2532C38.2965 40.1215 38.2738 40.1385 38.2738 39.9201H38.2738Z" stroke="#252525" stroke-width="0.533333" mask="url(#path-3-outside-2_1666_1423)"/>
</g>
<defs>
<clipPath id="clip0_1666_1423">
<rect width="48" height="48" fill="white" transform="translate(8 8)"/>
</clipPath>
</defs>
</svg>
